<mxfile host="app.diagrams.net" modified="2023-08-14T07:34:15.526Z" agent="Mozilla/5.0 (Windows NT 10.0; Win64; x64) AppleWebKit/537.36 (KHTML, like Gecko) Chrome/115.0.0.0 Safari/537.36" version="21.6.8" etag="YSfDIXvYWwTMorqMGJet" type="github">
  <diagram name="第 1 页" id="VXVUnhYRUdE7yQb651BT">
    <mxGraphModel>
      <root>
        <mxCell id="0" />
        <mxCell id="1" parent="0" />
      </root>
    </mxGraphModel>
  </diagram>
</mxfile>
